<?xml version="1.0" standalone="no"?>
<!DOCTYPE svg PUBLIC "-//W3C//DTD SVG 20010904//EN"
 "http://www.w3.org/TR/2001/REC-SVG-20010904/DTD/svg10.dtd">
<svg version="1.0" xmlns="http://www.w3.org/2000/svg"
 width="558.000000pt" height="522.000000pt" viewBox="0 0 558.000000 522.000000"
 preserveAspectRatio="xMidYMid meet">
<metadata>
Created by potrace 1.10, written by Peter Selinger 2001-2011
</metadata>
<g transform="translate(0.000000,522.000000) scale(0.100000,-0.100000)"
fill="#ffffff" stroke="none">
<path d="M3750 2825 l0 -1355 845 0 845 0 0 153 0 152 -634 -3 c-571 -2 -636
-1 -650 14 -15 14 -16 125 -16 1202 l0 1187 -195 3 -195 2 0 -1355z"/>
<path d="M205 4144 c-7 -3 -8 -458 -5 -1351 l5 -1348 485 -2 c432 -3 500 -1
620 16 204 29 282 52 427 124 57 28 115 62 130 75 16 13 52 43 81 68 83 72
185 217 243 345 172 384 177 1030 12 1419 -46 107 -83 178 -106 202 -7 7 -28
36 -47 64 -39 57 -215 214 -241 214 -9 0 -22 7 -29 15 -7 8 -20 15 -30 15 -10
0 -23 7 -30 15 -7 8 -21 15 -32 15 -10 0 -21 7 -24 15 -4 9 -19 15 -38 15 -17
0 -40 7 -50 15 -11 8 -36 15 -56 15 -20 0 -45 7 -56 15 -11 9 -42 15 -79 15
-33 0 -91 7 -130 15 -57 12 -162 15 -555 14 -267 0 -489 -2 -495 -5z m1095
-322 c102 -28 104 -28 197 -75 58 -29 105 -62 156 -111 76 -74 177 -213 177
-245 0 -10 7 -24 15 -31 8 -7 15 -25 15 -40 0 -15 7 -33 15 -40 9 -8 15 -30
15 -59 0 -26 5 -52 12 -59 13 -13 32 -229 32 -367 -1 -151 -15 -328 -30 -368
-8 -20 -14 -54 -14 -75 0 -20 -7 -46 -15 -56 -8 -11 -15 -30 -15 -42 0 -12 -7
-27 -15 -34 -8 -7 -15 -23 -15 -35 0 -12 -7 -28 -15 -35 -8 -7 -15 -17 -15
-22 0 -6 -13 -27 -30 -48 -16 -21 -30 -42 -30 -47 0 -25 -195 -193 -223 -193
-8 0 -20 -7 -27 -15 -7 -8 -20 -15 -30 -15 -10 0 -23 -7 -30 -15 -7 -8 -27
-15 -44 -15 -18 0 -37 -5 -44 -12 -6 -6 -35 -15 -64 -19 -29 -5 -82 -13 -118
-18 -36 -6 -176 -11 -312 -11 -234 0 -248 1 -258 19 -16 31 -14 2083 3 2100 9
10 78 12 322 8 274 -4 319 -6 385 -25z"/>
<path d="M3115 4138 c-3 -7 -7 -456 -9 -998 -4 -971 -9 -1137 -33 -1162 -7 -6
-13 -24 -13 -39 0 -15 -7 -32 -15 -39 -8 -7 -15 -19 -15 -26 0 -20 -100 -116
-140 -135 -102 -49 -104 -49 -293 -49 -139 1 -188 4 -207 15 -14 8 -41 15 -60
15 -19 0 -46 7 -60 15 -14 8 -37 14 -52 15 l-28 0 0 -140 0 -139 33 -14 c36
-16 111 -37 209 -61 92 -22 422 -23 475 -1 19 8 48 15 63 15 54 0 199 71 272
133 65 56 139 158 167 232 12 33 27 68 32 78 6 10 13 42 16 70 2 29 11 66 19
84 12 26 14 202 14 1087 l0 1056 -185 0 c-139 0 -187 -3 -190 -12z"/>
</g>
</svg>
